<mxfile host="Electron" modified="2023-11-09T19:51:46.506Z" agent="Mozilla/5.0 (Windows NT 10.0; Win64; x64) AppleWebKit/537.36 (KHTML, like Gecko) draw.io/21.2.8 Chrome/112.0.5615.165 Electron/24.2.0 Safari/537.36" etag="OA8wTkmjoHLd9AERbSNx" version="21.2.8" type="device">
  <diagram id="prtHgNgQTEPvFCAcTncT" name="Page-1">
    <mxGraphModel dx="1050" dy="621" grid="1" gridSize="10" guides="1" tooltips="1" connect="1" arrows="1" fold="1" page="1" pageScale="1" pageWidth="827" pageHeight="1169" math="0" shadow="0">
      <root>
        <mxCell id="0" />
        <mxCell id="1" parent="0" />
        <mxCell id="NQ959O63jr3bMnN2Re4T-3" value="&lt;ul&gt;&lt;li&gt;create&lt;/li&gt;&lt;li&gt;missile_first_pos_x = rocket_x&lt;/li&gt;&lt;li&gt;missile_fisrt_pos_y = rocket_y&lt;/li&gt;&lt;/ul&gt;" style="text;html=1;strokeColor=none;fillColor=none;align=left;verticalAlign=middle;whiteSpace=wrap;rounded=0;" vertex="1" parent="1">
          <mxGeometry x="300" y="110" width="290" height="80" as="geometry" />
        </mxCell>
        <mxCell id="NQ959O63jr3bMnN2Re4T-4" value="on_space_key()" style="whiteSpace=wrap;html=1;" vertex="1" parent="1">
          <mxGeometry x="170" y="120" width="120" height="60" as="geometry" />
        </mxCell>
        <mxCell id="NQ959O63jr3bMnN2Re4T-6" style="edgeStyle=orthogonalEdgeStyle;rounded=0;orthogonalLoop=1;jettySize=auto;html=1;exitX=0.5;exitY=1;exitDx=0;exitDy=0;entryX=0.5;entryY=0;entryDx=0;entryDy=0;" edge="1" parent="1" source="NQ959O63jr3bMnN2Re4T-5" target="NQ959O63jr3bMnN2Re4T-4">
          <mxGeometry relative="1" as="geometry" />
        </mxCell>
        <mxCell id="NQ959O63jr3bMnN2Re4T-5" value="window.bind(&quot;&amp;lt;space&amp;gt;&quot;, on_space_key)" style="whiteSpace=wrap;html=1;" vertex="1" parent="1">
          <mxGeometry x="170" y="20" width="120" height="60" as="geometry" />
        </mxCell>
      </root>
    </mxGraphModel>
  </diagram>
</mxfile>
